{"accessors":[{"bufferView":1,"componentType":5126,"count":42625,"max":[12.615945816040039,12.855315208435059,30.445234298706055],"min":[-12.798872947692871,-12.559501647949219,-0.048022083938121796],"type":"VEC3"},{"bufferView":1,"byteOffset":511500,"componentType":5126,"count":42625,"max":[0.9999826550483704,0.9999698400497437,1],"min":[-0.9999223351478577,-0.9999992251396179,-1],"type":"VEC3"},{"bufferView":0,"componentType":5125,"count":232551,"max":[42624],"min":[0],"type":"SCALAR"}],"asset":{"extras":{"author":"james525 (https://sketchfab.com/james525)","license":"CC-BY-4.0 (http://creativecommons.org/licenses/by/4.0/)","source":"https://sketchfab.com/3d-models/theon-v11-c8212a7b619b45b998a68cd0df6f1bf0","title":"Theon v1.1"},"generator":"Sketchfab-7.7.0","version":"2.0"},"bufferViews":[{"buffer":0,"byteLength":930204,"byteOffset":0,"name":"floatBufferViews","target":34963},{"buffer":0,"byteLength":1023000,"byteOffset":930204,"byteStride":12,"name":"floatBufferViews","target":34962}],"buffers":[{"byteLength":1953204,"uri":"data:application/octet-stream;base64,"}],"materials":[{"doubleSided":true,"name":"Scene_-_Root","pbrMetallicRoughness":{"baseColorFactor":[1,1,1,1],"metallicFactor":0,"roughnessFactor":0.6}}],"meshes":[{"primitives":[{"attributes":{"NORMAL":1,"POSITION":0},"indices":2,"material":0,"mode":4}]}],"nodes":[{"children":[1],"name":"RootNode (gltf orientation matrix)","rotation":[-0.7071067811865475,0,0,0.7071067811865476]},{"children":[2],"name":"RootNode (model correction matrix)"},{"children":[3],"name":"Theon.stl.cleaner.materialmerger.gles"},{"mesh":0,"name":""}],"scene":0,"scenes":[{"name":"OSG_Scene","nodes":[0]}]}